<svg xmlns="http://www.w3.org/2000/svg" xmlns:svg="http://www.w3.org/2000/svg" xmlns:xlink="http://www.w3.org/1999/xlink" version="1.0" height="920.0000000000002pt" width="1280.0000000000002pt" viewBox="-35.00000000000006 7.000000000000007 1288.0000000000002 926.0000000000002" ><defs><style type="text/css">
            @font-face {
                font-family: 'lt_regular';
                src: url('https://app.creately.com/diagram/assets/fonts/lato/lt-regular-webfont.woff2') format('woff2'),
                    url('https://app.creately.com/diagram/assets/fonts/lato/lt-regular-webfont.woff') format('woff');
                font-weight: normal;
                font-style: normal;
            }
            @font-face {
                font-family: 'noto_regular';
                src: url('https://app.creately.com/diagram/assets/fonts/noto/noto-regular.woff') format('woff'),
                     url('https://app.creately.com/diagram/assets/fonts/noto/noto-regular.woff2') format('woff2');
                font-weight: normal;
                font-style: normal;
            }
        p {
            margin: 0;
        }
        </style></defs><defs><style>
            span{ display: inline-block; }
        </style></defs><g id="l2G82w08z1f"><g transform="translate(202.5423728813562 10.000000000000007)"><rect x="0" y="0" width="183.05084745762716" height="266" rx="2" ry="2" fill="rgb(246,135,44)" stroke="#0b0b0b" stroke-width="2" stroke-linecap="round" stroke-linejoin="round" stroke-dasharray="0 0"/><path d="M 0,29 L 183.05084745762716,29 M 0,148 L 183.05084745762716,148" fill="rgb(246,135,44)" stroke="#0b0b0b" stroke-width="2" stroke-linecap="round" stroke-linejoin="round" stroke-dasharray="0 0"/></g><g transform="translate(276.56779661016975, 15.000000000000007) rotate(0, 17.5, 0)" width="35" height="19"><text text-decoration="none" x="0.5" fill="#ffffff" font-size="10pt" font-family="lt_regular"  y="15">Policy</text><text text-decoration="none" x="34.5" fill="#4b4b4b" font-size="10pt" font-family="noto_regular"  y="15"></text></g><g transform="translate(212.5423728813562, 44.00000000000001) rotate(0, 0, 0)" width="119" height="109"><text text-decoration="none" x="0" fill="#ffffff" font-size="10pt" font-family="lt_regular"  y="14">+PolicyId:&#160;</text><text text-decoration="none" x="59" fill="#ffffff" font-size="10pt" font-family="lt_regular"  y="14">string</text><text text-decoration="none" x="92" fill="#ffffff" font-size="10pt" font-family="lt_regular"  y="14"></text><text text-decoration="none" x="0" fill="#ffffff" font-size="10pt" font-family="lt_regular"  y="32">+PolicyName:&#160;</text><text text-decoration="none" x="82" fill="#ffffff" font-size="10pt" font-family="lt_regular"  y="32">string</text><text text-decoration="none" x="115" fill="#ffffff" font-size="10pt" font-family="lt_regular"  y="32"></text><text text-decoration="none" x="0" fill="#ffffff" font-size="10pt" font-family="lt_regular"  y="50">+PolicyAdmin:&#160;</text><text text-decoration="none" x="85" fill="#ffffff" font-size="10pt" font-family="lt_regular"  y="50">string</text><text text-decoration="none" x="118" fill="#ffffff" font-size="10pt" font-family="lt_regular"  y="50"></text><text text-decoration="none" x="0" fill="#ffffff" font-size="10pt" font-family="lt_regular"  y="68">+YearofPub:&#160;</text><text text-decoration="none" x="74" fill="#ffffff" font-size="10pt" font-family="lt_regular"  y="68">string</text><text text-decoration="none" x="107" fill="#ffffff" font-size="10pt" font-family="lt_regular"  y="68"></text><text text-decoration="none" x="0" fill="#ffffff" font-size="10pt" font-family="lt_regular"  y="86">+Price:&#160;</text><text text-decoration="none" x="43" fill="#ffffff" font-size="10pt" font-family="lt_regular"  y="86">float</text><text text-decoration="none" x="69" fill="#ffffff" font-size="10pt" font-family="lt_regular"  y="86"></text><text text-decoration="none" x="0" fill="#ffffff" font-size="10pt" font-family="lt_regular"  y="105">+Status:&#160;</text><text text-decoration="none" x="50" fill="#ffffff" font-size="10pt" font-family="lt_regular"  y="105">string</text><text text-decoration="none" x="83" fill="#4b4b4b" font-size="10pt" font-family="noto_regular"  y="105"></text></g><g transform="translate(212.54237288135621, 163) rotate(0, 0, 0)" width="133" height="108"><text text-decoration="none" x="0" fill="#ffffff" font-size="10pt" font-family="lt_regular"  y="14">+AddNewPolicy()</text><text text-decoration="none" x="98" fill="#ffffff" font-size="10pt" font-family="lt_regular"  y="14"></text><text text-decoration="none" x="0" fill="#ffffff" font-size="10pt" font-family="lt_regular"  y="32">+DeletePolicy()</text><text text-decoration="none" x="87" fill="#ffffff" font-size="10pt" font-family="lt_regular"  y="32"></text><text text-decoration="none" x="0" fill="#ffffff" font-size="10pt" font-family="lt_regular"  y="50">+UpdatePolicyDetails()</text><text text-decoration="none" x="130" fill="#ffffff" font-size="10pt" font-family="lt_regular"  y="50"></text><text text-decoration="none" x="0" fill="#ffffff" font-size="10pt" font-family="lt_regular"  y="68">+DisplayPlicyDetails()</text><text text-decoration="none" x="123" fill="#ffffff" font-size="10pt" font-family="lt_regular"  y="68"></text><text text-decoration="none" x="0" fill="#ffffff" font-size="10pt" font-family="lt_regular"  y="86">+SearchPolicy()</text><text text-decoration="none" x="86" fill="#ffffff" font-size="10pt" font-family="lt_regular"  y="86"></text><text text-decoration="none" x="66.5" fill="#4b4b4b" font-size="10pt" font-family="noto_regular"  y="105"></text></g></g><g id="0YeOIPPwcbG"><g transform="translate(789.9999999999998 10.000000000000028)"><rect x="0" y="0" width="200.00000000000037" height="266" rx="2" ry="2" fill="rgb(237,207,31)" stroke="#0b0b0b" stroke-width="2" stroke-linecap="round" stroke-linejoin="round" stroke-dasharray="0 0"/><path d="M 0,46 L 200.00000000000037,46 M 0,93 L 200.00000000000037,93" fill="rgb(237,207,31)" stroke="#0b0b0b" stroke-width="2" stroke-linecap="round" stroke-linejoin="round" stroke-dasharray="0 0"/></g><g transform="translate(871, 15.000000000000028) rotate(0, 19, 0)" width="38" height="36"><text text-decoration="none" x="0.5" fill="#ffffff" font-size="10pt" font-family="lt_regular"  y="14">Admin</text><text text-decoration="none" x="37.5" fill="#ffffff" font-size="10pt" font-family="lt_regular"  y="14"></text><text text-decoration="none" x="19" fill="#4b4b4b" font-size="10pt" font-family="noto_regular"  y="33"></text></g><g transform="translate(799.9999999999998, 61.00000000000003) rotate(0, 0, 0)" width="82" height="37"><text text-decoration="none" x="0" fill="#ffffff" font-size="10pt" font-family="lt_regular"  y="14">+Id:&#160;</text><text text-decoration="none" x="25" fill="#ffffff" font-size="10pt" font-family="lt_regular"  y="14">int</text><text text-decoration="none" x="40" fill="#ffffff" font-size="10pt" font-family="lt_regular"  y="14"></text><text text-decoration="none" x="0" fill="#ffffff" font-size="10pt" font-family="lt_regular"  y="33">+Name:&#160;</text><text text-decoration="none" x="48" fill="#ffffff" font-size="10pt" font-family="lt_regular"  y="33">string</text><text text-decoration="none" x="81" fill="#4b4b4b" font-size="10pt" font-family="noto_regular"  y="33"></text></g><g transform="translate(799.9999999999998, 108.00000000000003) rotate(0, 0, 0)" width="185" height="163"><text text-decoration="none" x="0" fill="#ffffff" font-size="10pt" font-family="lt_regular"  y="14">+IssuePolicy()</text><text text-decoration="none" x="78" fill="#ffffff" font-size="10pt" font-family="lt_regular"  y="14"></text><text text-decoration="none" x="0" fill="#ffffff" font-size="10pt" font-family="lt_regular"  y="32">+AbortPolicy()</text><text text-decoration="none" x="81" fill="#ffffff" font-size="10pt" font-family="lt_regular"  y="32"></text><text text-decoration="none" x="0" fill="#ffffff" font-size="10pt" font-family="lt_regular"  y="50">+ViewPayment(fine:&#160;</text><text text-decoration="none" x="118" fill="#ffffff" font-size="10pt" font-family="lt_regular"  y="50">int)</text><text text-decoration="none" x="136" fill="#ffffff" font-size="10pt" font-family="lt_regular"  y="50"></text><text text-decoration="none" x="0" fill="#ffffff" font-size="10pt" font-family="lt_regular"  y="68">+SearchPolicy(name:&#160;</text><text text-decoration="none" x="120" fill="#ffffff" font-size="10pt" font-family="lt_regular"  y="68">string)</text><text text-decoration="none" x="156" fill="#ffffff" font-size="10pt" font-family="lt_regular"  y="68"></text><text text-decoration="none" x="0" fill="#ffffff" font-size="10pt" font-family="lt_regular"  y="86">+VerifyMember(id:&#160;</text><text text-decoration="none" x="112" fill="#ffffff" font-size="10pt" font-family="lt_regular"  y="86">int):&#160;</text><text text-decoration="none" x="136" fill="#ffffff" font-size="10pt" font-family="lt_regular"  y="86">Boolean</text><text text-decoration="none" x="181" fill="#ffffff" font-size="10pt" font-family="lt_regular"  y="86"></text><text text-decoration="none" x="0" fill="#ffffff" font-size="10pt" font-family="lt_regular"  y="104">+PayBills()</text><text text-decoration="none" x="58" fill="#ffffff" font-size="10pt" font-family="lt_regular"  y="104"></text><text text-decoration="none" x="0" fill="#ffffff" font-size="10pt" font-family="lt_regular"  y="122">+AddNewPolicies()</text><text text-decoration="none" x="107" fill="#ffffff" font-size="10pt" font-family="lt_regular"  y="122"></text><text text-decoration="none" x="0" fill="#ffffff" font-size="10pt" font-family="lt_regular"  y="140">+IssueIDs()</text><text text-decoration="none" x="64" fill="#ffffff" font-size="10pt" font-family="lt_regular"  y="140"></text><text text-decoration="none" x="0" fill="#ffffff" font-size="10pt" font-family="lt_regular"  y="159">+UpdateRules()</text><text text-decoration="none" x="87" fill="#4b4b4b" font-size="10pt" font-family="noto_regular"  y="159"></text></g></g><g id="o3IFiJQmyWV"><g transform="translate(202.5423728813562 509.99999999999994)"><rect x="0" y="0" width="183.05084745762716" height="160" rx="2" ry="2" fill="rgb(241,92,99)" stroke="#0b0b0b" stroke-width="2" stroke-linecap="round" stroke-linejoin="round" stroke-dasharray="0 0"/><path d="M 0,29 L 183.05084745762716,29 M 0,57 L 183.05084745762716,57" fill="rgb(241,92,99)" stroke="#0b0b0b" stroke-width="2" stroke-linecap="round" stroke-linejoin="round" stroke-dasharray="0 0"/></g><g transform="translate(227.56779661016975, 515) rotate(0, 66.5, 0)" width="133" height="19"><text text-decoration="none" x="1.5" fill="#ffffff" font-size="10pt" font-family="lt_regular"  y="15">Home&#160;</text><text text-decoration="none" x="39.5" fill="#ffffff" font-size="10pt" font-family="lt_regular"  y="15">Insurance&#160;</text><text text-decoration="none" x="97.5" fill="#ffffff" font-size="10pt" font-family="lt_regular"  y="15">Policy</text><text text-decoration="none" x="131.5" fill="#4b4b4b" font-size="10pt" font-family="noto_regular"  y="15"></text></g><g transform="translate(207.5423728813562, 544) rotate(0, 0, 0)" width="0" height="18"><text text-decoration="none" x="0" fill="#4b4b4b" font-size="10pt" font-family="noto_regular"  y="15"></text></g><g transform="translate(207.5423728813562, 572) rotate(0, 0, 0)" width="0" height="18"><text text-decoration="none" x="0" fill="#4b4b4b" font-size="10pt" font-family="noto_regular"  y="15"></text></g></g><g id="8jzKnB4OVV9"><g transform="translate(466.949152542373 509.99999999999994)"><rect x="0" y="0" width="183.05084745762716" height="160" rx="2" ry="2" fill="rgb(241,92,99)" stroke="#0b0b0b" stroke-width="2" stroke-linecap="round" stroke-linejoin="round" stroke-dasharray="0 0"/><path d="M 0,29 L 183.05084745762716,29 M 0,57 L 183.05084745762716,57" fill="rgb(241,92,99)" stroke="#0b0b0b" stroke-width="2" stroke-linecap="round" stroke-linejoin="round" stroke-dasharray="0 0"/></g><g transform="translate(488.9745762711866, 515) rotate(0, 69.5, 0)" width="139" height="19"><text text-decoration="none" x="1" fill="#ffffff" font-size="10pt" font-family="lt_regular"  y="15">Vehicle&#160;</text><text text-decoration="none" x="46" fill="#ffffff" font-size="10pt" font-family="lt_regular"  y="15">Insurance&#160;</text><text text-decoration="none" x="104" fill="#ffffff" font-size="10pt" font-family="lt_regular"  y="15">Policy</text><text text-decoration="none" x="138" fill="#4b4b4b" font-size="10pt" font-family="noto_regular"  y="15"></text></g><g transform="translate(471.949152542373, 544) rotate(0, 0, 0)" width="0" height="18"><text text-decoration="none" x="0" fill="#4b4b4b" font-size="10pt" font-family="noto_regular"  y="15"></text></g><g transform="translate(476.949152542373, 572) rotate(0, 0, 0)" width="97" height="36"><text text-decoration="none" x="0" fill="#ffffff" font-size="10pt" font-family="lt_regular"  y="14">+VehiclePricing()</text><text text-decoration="none" x="95" fill="#ffffff" font-size="10pt" font-family="lt_regular"  y="14"></text><text text-decoration="none" x="48.5" fill="#4b4b4b" font-size="10pt" font-family="noto_regular"  y="33"></text></g></g><g id="FmjScUdmr9j"><g transform="translate(-30.000000000000057 510.0000000000001)"><rect x="0" y="0" width="180" height="160" rx="2" ry="2" fill="rgb(240,82,84)" stroke="#0b0b0b" stroke-width="2" stroke-linecap="round" stroke-linejoin="round" stroke-dasharray="0 0"/><path d="M 0,29 L 180,29 M 0,57 L 180,57" fill="rgb(240,82,84)" stroke="#0b0b0b" stroke-width="2" stroke-linecap="round" stroke-linejoin="round" stroke-dasharray="0 0"/></g><g transform="translate(0.49999999999994316, 515.0000000000001) rotate(0, 59.5, 0)" width="119" height="19"><text text-decoration="none" x="1" fill="#ffffff" font-size="10pt" font-family="lt_regular"  y="15">Life&#160;</text><text text-decoration="none" x="26" fill="#ffffff" font-size="10pt" font-family="lt_regular"  y="15">Insurance&#160;</text><text text-decoration="none" x="84" fill="#ffffff" font-size="10pt" font-family="lt_regular"  y="15">Policy</text><text text-decoration="none" x="118" fill="#4b4b4b" font-size="10pt" font-family="noto_regular"  y="15"></text></g><g transform="translate(-25.000000000000053, 544.0000000000001) rotate(0, 0, 0)" width="0" height="18"><text text-decoration="none" x="0" fill="#4b4b4b" font-size="10pt" font-family="noto_regular"  y="15"></text></g><g transform="translate(-25.000000000000053, 572.0000000000001) rotate(0, 0, 0)" width="0" height="18"><text text-decoration="none" x="0" fill="#4b4b4b" font-size="10pt" font-family="noto_regular"  y="15"></text></g></g><g id="2fKrj4daVL2"><g transform="translate(910.0000000000002 510)"><rect x="0" y="0" width="180" height="230" rx="2" ry="2" fill="rgb(237,207,31)" stroke="#0b0b0b" stroke-width="2" stroke-linecap="round" stroke-linejoin="round" stroke-dasharray="0 0"/><path d="M 0,46 L 180,46 M 0,129 L 180,129" fill="rgb(237,207,31)" stroke="#0b0b0b" stroke-width="2" stroke-linecap="round" stroke-linejoin="round" stroke-dasharray="0 0"/></g><g transform="translate(986.5000000000002, 515) rotate(0, 13.5, 0)" width="27" height="36"><text text-decoration="none" x="0" fill="#ffffff" font-size="10pt" font-family="lt_regular"  y="14">User</text><text text-decoration="none" x="13.5" fill="#ffffff" font-size="10pt" font-family="lt_regular"  y="32"></text><text text-decoration="none" x="13.5" fill="#4b4b4b" font-size="10pt" font-family="noto_regular"  y="51"></text></g><g transform="translate(920.0000000000002, 561) rotate(0, 0, 0)" width="120" height="73"><text text-decoration="none" x="0" fill="#ffffff" font-size="10pt" font-family="lt_regular"  y="14">+UserID:&#160;</text><text text-decoration="none" x="56" fill="#ffffff" font-size="10pt" font-family="lt_regular"  y="14">int</text><text text-decoration="none" x="71" fill="#ffffff" font-size="10pt" font-family="lt_regular"  y="14"></text><text text-decoration="none" x="0" fill="#ffffff" font-size="10pt" font-family="lt_regular"  y="32">+UserName:&#160;</text><text text-decoration="none" x="76" fill="#ffffff" font-size="10pt" font-family="lt_regular"  y="32">string</text><text text-decoration="none" x="109" fill="#ffffff" font-size="10pt" font-family="lt_regular"  y="32"></text><text text-decoration="none" x="0" fill="#ffffff" font-size="10pt" font-family="lt_regular"  y="50">+UserAddress:&#160;</text><text text-decoration="none" x="0" fill="#ffffff" font-size="10pt" font-family="lt_regular"  y="68">string</text><text text-decoration="none" x="33" fill="#ffffff" font-size="10pt" font-family="lt_regular"  y="68"></text><text text-decoration="none" x="0" fill="#ffffff" font-size="10pt" font-family="lt_regular"  y="87">+PhoneNo:&#160;</text><text text-decoration="none" x="67" fill="#ffffff" font-size="10pt" font-family="lt_regular"  y="87">int</text><text text-decoration="none" x="82" fill="#4b4b4b" font-size="10pt" font-family="noto_regular"  y="87"></text></g><g transform="translate(920.0000000000002, 644) rotate(0, 0, 0)" width="154" height="91"><text text-decoration="none" x="0" fill="#ffffff" font-size="10pt" font-family="lt_regular"  y="14">+RegisterPolicies()</text><text text-decoration="none" x="105" fill="#ffffff" font-size="10pt" font-family="lt_regular"  y="14"></text><text text-decoration="none" x="0" fill="#ffffff" font-size="10pt" font-family="lt_regular"  y="32">+PolicyRenewal()</text><text text-decoration="none" x="96" fill="#ffffff" font-size="10pt" font-family="lt_regular"  y="32"></text><text text-decoration="none" x="0" fill="#ffffff" font-size="10pt" font-family="lt_regular"  y="50">+doPayments(Dt:&#160;</text><text text-decoration="none" x="103" fill="#ffffff" font-size="10pt" font-family="lt_regular"  y="50">date):&#160;</text><text text-decoration="none" x="137" fill="#ffffff" font-size="10pt" font-family="lt_regular"  y="50">int</text><text text-decoration="none" x="152" fill="#ffffff" font-size="10pt" font-family="lt_regular"  y="50"></text><text text-decoration="none" x="0" fill="#ffffff" font-size="10pt" font-family="lt_regular"  y="68">+DeleteUser()</text><text text-decoration="none" x="81" fill="#ffffff" font-size="10pt" font-family="lt_regular"  y="68"></text><text text-decoration="none" x="0" fill="#ffffff" font-size="10pt" font-family="lt_regular"  y="87">+UpdateDetails()</text><text text-decoration="none" x="96" fill="#4b4b4b" font-size="10pt" font-family="noto_regular"  y="87"></text></g></g><g id="MQsPChFBn5J"><g transform="translate(749.9999999999998 820)"><rect x="0" y="0" width="180" height="110.00000000000016" rx="2" ry="2" fill="rgb(107,183,100)" stroke="#0b0b0b" stroke-width="2" stroke-linecap="round" stroke-linejoin="round" stroke-dasharray="0 0"/><path d="M 0,46 L 180,46 M 0,74 L 180,74" fill="rgb(107,183,100)" stroke="#0b0b0b" stroke-width="2" stroke-linecap="round" stroke-linejoin="round" stroke-dasharray="0 0"/></g><g transform="translate(811.4999999999998, 825) rotate(0, 28.5, 0)" width="57" height="36"><text text-decoration="none" x="0" fill="#ffffff" font-size="10pt" font-family="lt_regular"  y="14">Customer</text><text text-decoration="none" x="57" fill="#ffffff" font-size="10pt" font-family="lt_regular"  y="14"></text><text text-decoration="none" x="28.5" fill="#4b4b4b" font-size="10pt" font-family="noto_regular"  y="33"></text></g><g transform="translate(754.9999999999998, 871) rotate(0, 0, 0)" width="0" height="18"><text text-decoration="none" x="0" fill="#4b4b4b" font-size="10pt" font-family="noto_regular"  y="15"></text></g><g transform="translate(754.9999999999998, 899) rotate(0, 0, 0)" width="0" height="18"><text text-decoration="none" x="0" fill="#4b4b4b" font-size="10pt" font-family="noto_regular"  y="15"></text></g></g><g id="t58zeCUECkn"><g transform="translate(1070.0000000000002 820)"><rect x="0" y="0" width="180" height="110.00000000000021" rx="2" ry="2" fill="rgb(107,183,100)" stroke="#0b0b0b" stroke-width="2" stroke-linecap="round" stroke-linejoin="round" stroke-dasharray="0 0"/><path d="M 0,29 L 180,29 M 0,75 L 180,75" fill="rgb(107,183,100)" stroke="#0b0b0b" stroke-width="2" stroke-linecap="round" stroke-linejoin="round" stroke-dasharray="0 0"/></g><g transform="translate(1105.5000000000002, 825) rotate(0, 54.5, 0)" width="109" height="19"><text text-decoration="none" x="1.5" fill="#ffffff" font-size="10pt" font-family="lt_regular"  y="15">Company&#160;</text><text text-decoration="none" x="58.5" fill="#ffffff" font-size="10pt" font-family="lt_regular"  y="15">Member</text><text text-decoration="none" x="107.5" fill="#4b4b4b" font-size="10pt" font-family="noto_regular"  y="15"></text></g><g transform="translate(1080.0000000000002, 854) rotate(0, 0, 0)" width="78" height="36"><text text-decoration="none" x="0" fill="#ffffff" font-size="10pt" font-family="lt_regular"  y="14">+Priviledges()</text><text text-decoration="none" x="77" fill="#ffffff" font-size="10pt" font-family="lt_regular"  y="14"></text><text text-decoration="none" x="39" fill="#4b4b4b" font-size="10pt" font-family="noto_regular"  y="33"></text></g><g transform="translate(1075.0000000000002, 900) rotate(0, 0, 0)" width="0" height="18"><text text-decoration="none" x="0" fill="#4b4b4b" font-size="10pt" font-family="noto_regular"  y="15"></text></g></g><g id="PGWlfa69fol"><g><path d="M 248,276 L 248.305084745763,393.00000000000006 L 154,393 L 59.99999999999994,393.00000000000006 L 60,510" fill="none" stroke="#0b0b0b" stroke-width="2" stroke-linecap="round" stroke-linejoin="round"/></g></g><g id="EdasaaXIeFp"><g><path d="M 294,276 L 294,510" fill="none" stroke="#0b0b0b" stroke-width="2" stroke-linecap="round" stroke-linejoin="round"/></g></g><g id="svf5YpzJ6lI"><g><path d="M 340,276 L 339.8305084745765,393 L 449,393 L 558.4745762711866,393 L 558,510" fill="none" stroke="#0b0b0b" stroke-width="2" stroke-linecap="round" stroke-linejoin="round"/></g></g><g id="aNbXo0HsfsV"><g><path d="M 386,143 L 588,143 L 587.7966101694915,143.00000000000003 L 790,143" fill="none" stroke="#0b0b0b" stroke-width="2" stroke-linecap="round" stroke-linejoin="round"/></g></g><g id="Xb3jXY5J0S2"><g><path d="M 940,276 L 940,393 L 970,393 L 1000,393 L 1000,510" fill="none" stroke="#0b0b0b" stroke-width="2" stroke-linecap="round" stroke-linejoin="round"/></g></g><g id="pjmmVAKTahj"><g><path d="M 386,210 L 705.6137479541735,210 L 706,418 L 705.6137479541735,625 L 910,625" fill="none" stroke="#0b0b0b" stroke-width="2" stroke-linecap="round" stroke-linejoin="round"/></g></g><g id="ydlulpWHTA4"><g><path d="M 955,740 L 955,780 L 898,780 L 840,780 L 840,820" fill="none" stroke="#0b0b0b" stroke-width="2" stroke-linecap="round" stroke-linejoin="round"/></g></g><g id="eTpQy4P373b"><g><path d="M 1045,740 L 1045,780 L 1103,780 L 1160,780 L 1160,820" fill="none" stroke="#0b0b0b" stroke-width="2" stroke-linecap="round" stroke-linejoin="round"/></g></g></svg>